<?xml version="1.0" standalone="no"?>
<!DOCTYPE svg PUBLIC "-//W3C//DTD SVG 20010904//EN"
 "http://www.w3.org/TR/2001/REC-SVG-20010904/DTD/svg10.dtd">
<svg version="1.0" xmlns="http://www.w3.org/2000/svg"
 width="256.000000pt" height="256.000000pt" viewBox="0 0 256.000000 256.000000"
 preserveAspectRatio="xMidYMid meet">

<g transform="translate(0.000000,256.000000) scale(0.100000,-0.100000)"
fill="#000000" stroke="none">
<path d="M1605 2300 c3 -5 10 -10 16 -10 5 0 9 5 9 10 0 6 -7 10 -16 10 -8 0
-12 -4 -9 -10z"/>
<path d="M1100 2284 c-147 -31 -285 -97 -404 -194 -154 -125 -258 -304 -322
-555 -23 -90 -28 -132 -29 -230 0 -66 3 -149 8 -185 9 -84 -7 -59 -23 36 -20
111 -8 326 24 449 41 156 121 310 233 445 37 44 37 45 4 15 -53 -48 -149 -182
-192 -266 -99 -198 -137 -427 -109 -659 29 -239 108 -408 269 -574 169 -174
382 -280 586 -291 80 -4 80 -4 20 5 -139 22 -305 89 -429 173 -130 88 -261
250 -342 422 -55 116 -49 137 8 30 98 -184 181 -282 318 -374 124 -83 239
-124 430 -154 15 -3 7 -5 -20 -7 l-45 -2 40 -9 c70 -14 223 -10 323 10 54 10
107 19 118 19 69 2 295 147 368 237 105 127 200 317 237 472 42 175 12 418
-72 586 -117 231 -331 403 -595 479 -113 32 -323 31 -439 -2 -44 -12 -90 -23
-102 -24 -11 -1 -19 -5 -15 -10 3 -5 -2 -6 -12 -3 -9 4 -15 3 -12 -2 7 -11
-43 -33 -56 -25 -7 5 -8 2 -3 -6 6 -10 4 -12 -9 -7 -9 4 -15 3 -12 -2 3 -5 -1
-12 -10 -15 -10 -4 -13 -2 -7 7 23 38 -149 -97 -224 -176 -35 -36 -63 -62 -63
-57 0 5 23 42 50 83 51 76 128 154 204 206 104 72 272 140 393 161 41 6 43 8
13 8 -19 0 -64 -6 -100 -14z m390 -155 c41 -10 120 -41 175 -69 298 -148 485
-461 485 -810 0 -86 -24 -249 -36 -238 -1 2 4 42 12 88 31 168 -3 395 -81 551
-55 107 -104 175 -182 250 -278 268 -675 314 -1007 117 -38 -22 -105 -75 -149
-117 -130 -124 -203 -241 -254 -408 -23 -77 -27 -106 -27 -228 -1 -120 2 -151
22 -215 77 -246 241 -439 468 -552 45 -22 111 -48 146 -58 34 -10 56 -19 48
-19 -29 -2 -162 39 -213 66 -79 39 -135 80 -210 152 -79 76 -122 131 -184 239
-52 89 -48 59 4 -38 39 -72 74 -121 142 -196 25 -27 10 -14 -34 31 -93 94
-145 177 -182 290 -49 149 -43 392 13 564 52 158 173 330 302 431 225 176 480
234 742 169z m-167 -159 c22 -31 22 -93 1 -128 l-17 -27 24 27 c13 15 48 38
78 52 l53 25 -6 -47 c-11 -77 -25 -109 -61 -141 -30 -26 -90 -49 -101 -39 -2
3 18 24 46 47 27 23 50 50 50 59 0 11 -7 5 -20 -15 -19 -31 -60 -62 -60 -45 0
5 12 27 26 48 17 25 20 33 8 22 -19 -16 -51 -75 -73 -130 -6 -16 -16 -28 -22
-28 -8 0 -6 7 4 18 20 22 22 48 5 58 -7 4 -8 3 -4 -4 15 -24 -15 -11 -54 24
-41 38 -46 52 -53 157 l-4 58 29 -27 c15 -15 29 -26 31 -23 2 2 12 26 22 54
10 27 30 61 44 75 l25 25 6 -36 c4 -19 14 -46 23 -59z m202 30 c11 -17 -5 -32
-21 -19 -7 6 -11 15 -8 20 7 12 21 11 29 -1z m-505 -20 c0 -5 -2 -10 -4 -10
-3 0 -8 5 -11 10 -3 6 -1 10 4 10 6 0 11 -4 11 -10z m666 -31 c10 -17 -13 -36
-27 -22 -12 12 -4 33 11 33 5 0 12 -5 16 -11z m-776 -19 c0 -5 -4 -10 -10 -10
-5 0 -10 5 -10 10 0 6 5 10 10 10 6 0 10 -4 10 -10z m100 -20 c0 -5 -4 -10
-10 -10 -5 0 -10 5 -10 10 0 6 5 10 10 10 6 0 10 -4 10 -10z m-22 -116 c6 -40
-20 -48 -100 -30 -63 14 -66 15 -23 12 28 -3 57 -7 65 -11 9 -3 24 1 35 9 16
12 18 17 8 27 -10 10 -13 10 -13 1 0 -7 -4 -12 -10 -12 -5 0 -7 7 -3 15 8 22
37 14 41 -11z m641 -8 c-1 -16 -2 -17 -6 -3 -5 21 -23 23 -23 2 0 -24 32 -34
80 -25 56 10 64 5 13 -9 -53 -15 -73 -14 -95 6 -21 19 -23 34 -7 50 17 17 39
4 38 -21z m-109 4 c0 -5 -4 -10 -10 -10 -5 0 -10 5 -10 10 0 6 5 10 10 10 6 0
10 -4 10 -10z m-430 -4 c0 -3 -4 -8 -10 -11 -5 -3 -10 -1 -10 4 0 6 5 11 10
11 6 0 10 -2 10 -4z m-267 -96 c33 -26 42 -69 24 -112 -17 -40 -70 -88 -98
-88 -16 0 -19 -7 -19 -57 0 -37 5 -62 15 -73 15 -16 12 -18 -31 -29 -53 -13
-64 -9 -46 19 15 25 17 320 2 320 -23 0 -8 29 18 33 69 10 110 7 135 -13z
m927 -57 c0 -10 10 -34 21 -53 l21 -34 24 29 c14 17 27 40 30 53 5 17 13 22
39 22 36 0 54 -14 30 -24 -8 -3 -35 -33 -60 -68 -44 -59 -46 -65 -43 -118 2
-30 8 -63 12 -72 7 -16 3 -18 -33 -18 -39 0 -53 11 -31 25 6 3 10 33 10 66 0
54 -4 66 -40 120 -23 32 -45 59 -50 59 -20 0 -9 19 13 23 46 9 57 7 57 -10z
m-362 -13 c65 0 81 -11 68 -46 -6 -16 -8 -16 -24 0 -25 22 -39 20 -46 -6 -8
-30 4 -180 15 -194 7 -8 -4 -13 -33 -17 -47 -6 -57 -2 -40 15 8 8 12 49 12
115 0 94 -2 103 -19 103 -10 0 -24 -7 -31 -15 -15 -18 -31 -11 -25 10 3 8 7
22 10 31 4 11 12 14 28 10 12 -3 50 -6 85 -6z m241 -8 c30 -24 31 -75 1 -107
l-22 -24 21 -30 c12 -17 33 -39 48 -51 21 -16 23 -23 13 -35 -17 -21 -43 -4
-86 56 -20 27 -40 49 -45 49 -13 0 -11 -84 3 -98 9 -9 3 -12 -30 -12 -40 0
-54 11 -32 25 6 3 10 52 10 111 0 63 -4 104 -10 104 -20 0 -10 19 13 23 52 10
96 6 116 -11z m-609 -7 c42 -22 65 -89 50 -145 -17 -64 -58 -100 -113 -100
-39 0 -49 5 -76 35 -24 28 -31 45 -31 78 0 52 25 101 65 127 36 24 66 25 105
5z m220 -12 c0 -21 -3 -24 -12 -15 -7 7 -25 12 -40 12 -26 0 -28 -3 -28 -36 0
-36 0 -37 36 -31 29 5 35 3 30 -9 -3 -9 -6 -25 -7 -37 0 -12 -3 -16 -6 -9 -2
6 -16 12 -29 12 -21 0 -24 -4 -24 -40 0 -39 1 -40 33 -40 18 0 38 5 45 12 17
17 24 5 16 -26 -6 -25 -9 -26 -80 -26 -68 0 -90 9 -64 25 6 3 10 52 10 111 0
63 -4 104 -10 104 -5 0 -10 5 -10 10 0 6 30 10 70 10 69 0 70 0 70 -27z m-829
-60 c-12 -20 -14 -14 -5 12 4 9 9 14 11 11 3 -2 0 -13 -6 -23z m179 -45 c0 -6
7 -19 15 -28 14 -15 14 -18 0 -30 -8 -7 -15 -19 -15 -27 0 -11 -9 -6 -27 13
-26 27 -27 30 -10 42 9 7 17 20 17 28 0 8 5 14 10 14 6 0 10 -5 10 -12z m1401
-38 c5 0 0 -14 -13 -30 l-22 -31 -13 26 c-8 14 -19 25 -26 25 -6 0 -1 7 11 16
12 8 22 23 22 32 1 12 6 8 16 -10 8 -16 19 -28 25 -28z m-1381 -120 c0 -5 -2
-10 -4 -10 -3 0 -8 5 -11 10 -3 6 -1 10 4 10 6 0 11 -4 11 -10z m244 -60 c11
-11 -4 -72 -20 -77 -6 -2 -14 5 -17 17 -6 25 -48 27 -71 4 -26 -25 -19 -57 20
-95 74 -71 80 -124 18 -179 -29 -25 -43 -30 -87 -30 -70 0 -81 9 -73 54 7 36
27 59 34 38 13 -40 68 -55 96 -26 26 26 18 52 -31 105 -40 43 -48 57 -48 89 0
44 30 84 80 106 31 14 82 11 99 -6z m206 11 c0 -5 -7 -14 -15 -21 -12 -10 -15
-37 -15 -126 l0 -114 39 0 c33 0 44 6 65 33 l26 32 0 -35 c0 -75 -1 -75 -107
-76 -69 -2 -92 1 -84 9 14 14 15 263 1 272 -20 13 -9 24 28 28 20 2 43 4 50 5
6 1 12 -2 12 -7z m226 -13 c-22 -31 -23 -235 -1 -264 21 -28 20 -29 -35 -30
-47 0 -62 7 -40 21 6 4 10 60 10 135 0 75 -4 131 -10 135 -23 15 -6 25 41 25
50 0 50 0 35 -22z m504 5 c26 -5 30 -10 30 -38 0 -41 -10 -51 -30 -27 -8 11
-30 22 -47 25 l-33 7 0 -49 c0 -42 3 -49 22 -55 13 -3 27 -1 32 4 19 19 26 10
26 -35 0 -44 -12 -60 -24 -30 -3 8 -17 15 -31 15 -24 0 -25 -3 -25 -59 0 -52
2 -59 23 -65 41 -11 64 -6 80 17 22 33 31 13 17 -39 -12 -42 -15 -45 -39 -40
-14 4 -55 12 -91 18 -36 7 -67 13 -69 14 -2 2 4 10 13 19 24 24 24 280 -1 314
l-16 24 67 -7 c36 -4 80 -9 96 -13z m-1243 -9 c8 -21 -13 -42 -28 -27 -13 13
-5 43 11 43 6 0 13 -7 17 -16z m1013 1 c33 -17 36 -31 15 -58 -13 -18 -14 -18
-34 2 -63 63 -161 -27 -137 -125 16 -64 94 -96 135 -55 19 19 20 19 36 1 20
-22 14 -35 -27 -56 -59 -31 -140 -4 -178 59 -27 44 -27 131 0 175 40 65 125
91 190 57z m470 -100 c0 -8 -4 -15 -10 -15 -5 0 -10 7 -10 15 0 8 5 15 10 15
6 0 10 -7 10 -15z m66 -109 c-37 -166 -182 -388 -320 -492 -101 -76 -255 -144
-361 -159 -22 -3 -4 5 40 18 92 26 202 74 213 92 4 7 45 41 90 75 103 77 197
186 250 288 40 76 91 223 93 265 1 18 2 19 6 4 3 -10 -3 -51 -11 -91z m-76 44
c0 -5 -4 -10 -10 -10 -5 0 -10 5 -10 10 0 6 5 10 10 10 6 0 10 -4 10 -10z
m-1432 -38 c2 -7 -3 -12 -12 -12 -9 0 -16 7 -16 16 0 17 22 14 28 -4z m322
-16 c0 -20 -19 -31 -32 -18 -6 6 -7 15 -4 21 10 16 36 13 36 -3z m1029 -33
c-8 -9 -16 -10 -22 -4 -13 13 0 31 19 24 11 -4 12 -8 3 -20z m-547 -113 c20
-6 60 -26 88 -45 57 -38 73 -41 110 -20 31 17 66 19 76 3 5 -8 2 -9 -10 -5
-10 4 -38 -2 -63 -13 -61 -27 -71 -26 -121 15 -59 46 -103 60 -198 60 -76 0
-86 -3 -177 -47 -100 -50 -136 -57 -177 -33 -30 17 -44 19 -35 5 4 -7 -3 -7
-20 0 -20 8 -29 6 -45 -10 -11 -11 -20 -24 -20 -30 0 -16 20 -12 26 5 4 8 10
12 16 9 13 -9 -11 -34 -33 -34 -25 0 -25 34 1 60 29 29 65 34 113 16 59 -22
72 -21 145 20 114 62 213 76 324 44z m-164 -68 c2 -7 -3 -12 -12 -12 -9 0 -16
7 -16 16 0 17 22 14 28 -4z m132 -2 c0 -5 -4 -10 -10 -10 -5 0 -10 5 -10 10 0
6 5 10 10 10 6 0 10 -4 10 -10z m663 -31 c-10 -17 -42 -56 -71 -87 l-53 -57
55 67 c30 36 59 76 66 87 6 12 13 21 16 21 3 0 -3 -14 -13 -31z m-333 -8 c13
-26 13 -27 -9 -28 -23 -2 -46 21 -36 37 10 16 33 12 45 -9z m-640 -71 c0 -11
-6 -20 -14 -20 -8 0 -17 -6 -19 -12 -3 -7 -6 2 -6 20 -1 26 3 32 19 32 13 0
20 -7 20 -20z m66 -12 c1 -29 -10 -38 -19 -15 -4 9 -8 8 -16 -3 -8 -12 -11 -8
-11 18 0 29 3 33 23 30 16 -2 22 -10 23 -30z m79 2 c0 -28 -27 -39 -50 -20
-21 18 -1 52 28 48 16 -2 22 -10 22 -28z m58 23 c-7 -2 -14 -17 -14 -31 l-2
-27 -4 25 c-3 14 -10 28 -17 32 -6 4 3 7 19 7 17 0 24 -3 18 -6z m55 0 c-10
-2 -18 -9 -18 -14 0 -6 4 -8 9 -4 5 3 12 1 16 -5 3 -5 -2 -10 -12 -11 -16 0
-16 -1 2 -9 19 -8 19 -9 -2 -9 -19 -1 -23 4 -23 29 0 25 4 30 23 29 16 -1 18
-2 5 -6z m60 0 c-10 -2 -18 -13 -18 -23 0 -10 8 -21 18 -23 12 -4 11 -5 -6 -6
-12 0 -25 6 -28 14 -10 24 4 45 28 44 17 -1 18 -2 6 -6z m86 -1 c3 -5 -4 -8
-16 -8 -30 1 -34 -22 -6 -33 l23 -10 -23 0 c-24 -1 -38 20 -28 44 6 16 41 21
50 7z m66 -2 c0 -5 -6 -7 -14 -4 -8 3 -16 1 -19 -3 -8 -13 5 -30 28 -36 15 -3
13 -5 -8 -6 -29 -1 -43 18 -33 44 6 16 46 21 46 5z m-610 -54 c0 -3 -4 -8 -10
-11 -5 -3 -10 -1 -10 4 0 6 5 11 10 11 6 0 10 -2 10 -4z m720 -16 c0 -5 -5
-10 -11 -10 -5 0 -7 5 -4 10 3 6 8 10 11 10 2 0 4 -4 4 -10z m-365 -60 c4 -7
13 -7 26 0 14 8 25 7 41 -5 13 -8 36 -15 53 -15 23 0 27 3 15 10 -13 8 -12 10
3 10 21 0 22 -13 2 -30 -13 -10 -23 -10 -57 3 -22 9 -45 14 -49 11 -15 -9 -10
-32 7 -42 12 -7 6 -9 -24 -9 -35 0 -39 2 -27 14 16 15 10 43 -9 43 -7 0 -17
-5 -23 -11 -14 -14 -85 -7 -91 9 -2 6 4 12 15 12 15 0 16 -2 3 -10 -11 -7 -6
-10 21 -10 20 0 42 7 49 15 14 17 36 20 45 5z"/>
<path d="M1273 1945 c0 -22 2 -30 4 -17 2 12 2 30 0 40 -3 9 -5 -1 -4 -23z"/>
<path d="M1258 1889 c6 -8 15 -26 20 -39 9 -23 10 -23 14 12 3 27 1 34 -7 28
-7 -6 -17 -5 -25 3 -12 10 -12 9 -2 -4z"/>
<path d="M1210 1856 c0 -2 8 -10 18 -17 15 -13 16 -12 3 4 -13 16 -21 21 -21
13z"/>
<path d="M1385 1830 c3 -5 8 -10 11 -10 2 0 4 5 4 10 0 6 -5 10 -11 10 -5 0
-7 -4 -4 -10z"/>
<path d="M1246 1807 c3 -10 9 -15 12 -12 3 3 0 11 -7 18 -10 9 -11 8 -5 -6z"/>
<path d="M1210 1795 c0 -5 10 -21 21 -35 13 -17 17 -18 10 -5 -17 33 -31 51
-31 40z"/>
<path d="M1266 1753 c10 -40 14 -41 14 -5 0 18 -5 32 -10 32 -6 0 -8 -11 -4
-27z"/>
<path d="M737 1663 c-4 -3 -7 -35 -7 -70 0 -69 13 -80 50 -43 31 31 30 75 -2
103 -22 18 -31 21 -41 10z"/>
<path d="M1557 1593 c-4 -3 -7 -26 -7 -50 0 -47 15 -56 43 -25 21 23 22 46 1
66 -17 17 -27 20 -37 9z"/>
<path d="M925 1555 c-30 -29 -34 -97 -9 -133 37 -53 114 -8 114 68 0 43 -32
90 -61 90 -11 0 -31 -11 -44 -25z"/>
<path d="M1020 720 c0 -5 5 -10 10 -10 6 0 10 5 10 10 0 6 -4 10 -10 10 -5 0
-10 -4 -10 -10z"/>
<path d="M1080 720 c0 -5 5 -10 10 -10 6 0 10 5 10 10 0 6 -4 10 -10 10 -5 0
-10 -4 -10 -10z"/>
<path d="M1152 713 c4 -21 33 -25 33 -3 0 8 -8 16 -18 18 -14 3 -18 -1 -15
-15z"/>
<path d="M1706 2292 c-3 -6 -1 -14 5 -17 15 -10 25 3 12 16 -7 7 -13 7 -17 1z"/>
<path d="M760 2235 c0 -8 7 -15 15 -15 8 0 15 7 15 15 0 8 -7 15 -15 15 -8 0
-15 -7 -15 -15z"/>
<path d="M1630 2230 c8 -5 20 -10 25 -10 6 0 3 5 -5 10 -8 5 -19 10 -25 10 -5
0 -3 -5 5 -10z"/>
<path d="M1235 2211 c-29 -4 10 -7 95 -7 98 1 127 3 90 7 -65 8 -117 8 -185 0z"/>
<path d="M1680 2210 c8 -5 20 -10 25 -10 6 0 3 5 -5 10 -8 5 -19 10 -25 10 -5
0 -3 -5 5 -10z"/>
<path d="M1143 2193 c9 -2 23 -2 30 0 6 3 -1 5 -18 5 -16 0 -22 -2 -12 -5z"/>
<path d="M1488 2193 c6 -2 18 -2 25 0 6 3 1 5 -13 5 -14 0 -19 -2 -12 -5z"/>
<path d="M1725 2193 c6 -5 33 -22 60 -37 28 -15 41 -20 30 -11 -22 19 -106 63
-90 48z"/>
<path d="M1538 2183 c7 -3 16 -2 19 1 4 3 -2 6 -13 5 -11 0 -14 -3 -6 -6z"/>
<path d="M1578 2173 c7 -3 16 -2 19 1 4 3 -2 6 -13 5 -11 0 -14 -3 -6 -6z"/>
<path d="M1914 2165 c-4 -9 -2 -21 4 -27 15 -15 44 -1 40 19 -4 23 -36 29 -44
8z"/>
<path d="M1650 2150 c8 -5 20 -10 25 -10 6 0 3 5 -5 10 -8 5 -19 10 -25 10 -5
0 -3 -5 5 -10z"/>
<path d="M1741 2107 c208 -120 337 -286 418 -535 47 -144 60 -260 52 -472 -7
-206 -160 -453 -386 -625 -125 -95 -311 -173 -465 -195 l-65 -9 80 4 c461 25
895 495 895 969 0 306 -134 595 -354 764 -63 49 -203 132 -221 132 -5 0 15
-15 46 -33z"/>
<path d="M530 2095 c-15 -17 -5 -35 20 -35 22 0 33 23 17 39 -15 15 -22 14
-37 -4z"/>
<path d="M1979 2003 c114 -114 191 -219 247 -337 19 -39 32 -60 28 -46 -22 99
-153 292 -269 398 -109 100 -112 91 -6 -15z"/>
<path d="M2050 2055 c0 -8 5 -15 10 -15 6 0 10 7 10 15 0 8 -4 15 -10 15 -5 0
-10 -7 -10 -15z"/>
<path d="M365 1910 c-4 -6 -3 -16 3 -22 6 -6 12 -6 17 2 4 6 3 16 -3 22 -6 6
-12 6 -17 -2z"/>
<path d="M190 1235 c0 -8 5 -15 10 -15 6 0 10 7 10 15 0 8 -4 15 -10 15 -5 0
-10 -7 -10 -15z"/>
<path d="M370 690 c0 -5 5 -10 11 -10 5 0 7 5 4 10 -3 6 -8 10 -11 10 -2 0 -4
-4 -4 -10z"/>
<path d="M466 541 c-4 -5 -2 -12 3 -15 5 -4 12 -2 15 3 4 5 2 12 -3 15 -5 4
-12 2 -15 -3z"/>
<path d="M1943 464 c-3 -8 -1 -20 5 -26 16 -16 42 -2 42 22 0 24 -38 28 -47 4z"/>
<path d="M577 453 c-13 -12 -7 -41 10 -47 9 -4 23 0 31 8 13 12 13 18 2 30
-13 17 -32 21 -43 9z"/>
<path d="M1058 373 c7 -3 16 -2 19 1 4 3 -2 6 -13 5 -11 0 -14 -3 -6 -6z"/>
<path d="M1690 290 c0 -5 7 -10 15 -10 8 0 15 5 15 10 0 6 -7 10 -15 10 -8 0
-15 -4 -15 -10z"/>
<path d="M1238 263 c6 -2 18 -2 25 0 6 3 1 5 -13 5 -14 0 -19 -2 -12 -5z"/>
</g>
</svg>
